<?xml version="1.0" encoding="UTF-8"?>
<svg width="301px" height="190px" viewBox="0 0 301 190" version="1.1" xmlns="http://www.w3.org/2000/svg" xmlns:xlink="http://www.w3.org/1999/xlink">
    <!-- Generator: Sketch 49.3 (51167) - http://www.bohemiancoding.com/sketch -->
    <title>Group 11</title>
    <desc>Created with Sketch.</desc>
    <defs>
        <path d="M6,0 L295,0 C298.313708,-6.08718376e-16 301,2.6862915 301,6 L301,184 C301,187.313708 298.313708,190 295,190 L6,190 C2.6862915,190 4.05812251e-16,187.313708 0,184 L0,6 C-4.05812251e-16,2.6862915 2.6862915,6.08718376e-16 6,0 Z" id="path-1"></path>
        <mask id="mask-2" maskContentUnits="userSpaceOnUse" maskUnits="objectBoundingBox" x="0" y="0" width="301" height="190" fill="white">
            <use xlink:href="#path-1"></use>
        </mask>
    </defs>
    <g id="UI" stroke="none" stroke-width="1" fill="none" fill-rule="evenodd">
        <g id="Private-Info-1.1-" transform="translate(-732.000000, -352.000000)">
            <g id="Group-3" transform="translate(732.000000, 352.000000)">
                <g id="Group-11">
                    <use id="Rectangle-8-Copy" stroke-opacity="0.501019022" stroke="#979797" mask="url(#mask-2)" stroke-width="4" fill="#FFFFFF" stroke-linecap="round" stroke-linejoin="round" stroke-dasharray="10" xlink:href="#path-1"></use>
                    <g id="ic_chrome_reader_mode_24px" opacity="0.300000012" transform="translate(117.000000, 55.000000)" fill="#757575" fill-rule="nonzero">
                        <path d="M60.9090909,0 C64.2590909,0 67,2.32941176 67,5.17647059 L67,38.8235294 C67,41.6705882 64.2590909,44 60.9090909,44 L6.09090909,44 C2.74090909,44 0,41.6705882 0,38.8235294 L0,5.17647059 C0,2.32941176 2.74090909,0 6.09090909,0 L60.9090909,0 Z M61.8181818,38.8235294 L61.8181818,5.17647059 L5,5.17647059 L5,38.8235294 L61.8181818,38.8235294 Z M7.91770133,16.7058824 L33.4090909,16.7058824 L33.4090909,20.5882353 L7.91770133,20.5882353 L7.91770133,16.7058824 Z M7.91770133,9.23529412 L59.2272727,9.23529412 L59.2272727,13.1176471 L7.91770133,13.1176471 L7.91770133,9.23529412 Z M7.91770133,24.1764706 L45,24.1764706 L45,28.0588235 L7.91770133,28.0588235 L7.91770133,24.1764706 Z" id="Shape"></path>
                    </g>
                </g>
            </g>
        </g>
    </g>
</svg>