<?xml version="1.0" encoding="UTF-8"?>
<svg width="35px" height="32px" viewBox="0 0 35 32" version="1.1" xmlns="http://www.w3.org/2000/svg" xmlns:xlink="http://www.w3.org/1999/xlink">
    <!-- Generator: sketchtool 49.3 (51167) - http://www.bohemiancoding.com/sketch -->
    <title>6AEC7315-644E-4CE0-9FC6-75DD00AB77D5</title>
    <desc>Created with sketchtool.</desc>
    <defs>
        <polygon id="path-1" points="36 36 0 36 0 0 36 0"></polygon>
    </defs>
    <g id="UI" stroke="none" stroke-width="1" fill="none" fill-rule="evenodd">
        <g id="1.0_Profile-empty-" transform="translate(-362.000000, -486.000000)">
            <g id="Group-4" transform="translate(251.000000, 436.000000)">
                <g id="Group-5" transform="translate(111.000000, 49.000000)">
                    <mask id="mask-2" fill="white">
                        <use xlink:href="#path-1"></use>
                    </mask>
                    <g id="a"></g>
                    <path d="M4.5,6 L4.5,1.5 L7.5,1.5 L7.5,6 L12,6 L12,9 L7.5,9 L7.5,13.5 L4.5,13.5 L4.5,9 L0,9 L0,6 L4.5,6 Z M9,15 L9,10.5 L13.5,10.5 L13.5,6 L24,6 L26.745,9 L31.5,9 C33.15,9 34.5,10.35 34.5,12 L34.5,30 C34.5,31.65 33.15,33 31.5,33 L7.5,33 C5.85,33 4.5,31.65 4.5,30 L4.5,15 L9,15 Z M19.5,28.5 C23.64,28.5 27,25.14 27,21 C27,16.86 23.64,13.5 19.5,13.5 C15.36,13.5 12,16.86 12,21 C12,25.14 15.36,28.5 19.5,28.5 Z M14.7,21 C14.7,23.655 16.845,25.8 19.5,25.8 C22.155,25.8 24.3,23.655 24.3,21 C24.3,18.345 22.155,16.2 19.5,16.2 C16.845,16.2 14.7,18.345 14.7,21 Z" id="Shape" fill="#000000" fill-rule="nonzero" mask="url(#mask-2)"></path>
                </g>
            </g>
        </g>
    </g>
</svg>