<?xml version="1.0" encoding="UTF-8"?>
<svg width="24px" height="32px" viewBox="0 0 24 32" version="1.1" xmlns="http://www.w3.org/2000/svg" xmlns:xlink="http://www.w3.org/1999/xlink">
    <!-- Generator: sketchtool 49.3 (51167) - http://www.bohemiancoding.com/sketch -->
    <title>BB9A8238-4919-454C-85E5-C0F51D7BAFBC</title>
    <desc>Created with sketchtool.</desc>
    <defs>
        <linearGradient x1="100%" y1="94.1939646%" x2="0%" y2="11.2597719%" id="linearGradient-1">
            <stop stop-color="#AA3445" offset="0%"></stop>
            <stop stop-color="#4C012C" offset="100%"></stop>
            <stop stop-color="#470B2F" offset="100%"></stop>
        </linearGradient>
    </defs>
    <g id="Symbols" stroke="none" stroke-width="1" fill="none" fill-rule="evenodd">
        <g id="badge-with-a-star" fill="url(#linearGradient-1)" fill-rule="nonzero">
            <g id="Shape">
                <path d="M17.5494451,22.6992561 C17.5286358,22.6992561 17.5078266,22.6992561 17.4870173,22.6992561 L16.1135723,22.6482465 L15.0939538,23.5528162 C14.7748786,23.8351031 14.3621272,23.9914984 13.932104,23.9914984 C13.7066705,23.9914984 13.4847052,23.9507248 13.2766127,23.8657088 L12.0037803,23.3556132 L10.7309827,23.8657088 C10.5228902,23.9507248 10.3009249,23.9914984 10.0754913,23.9914984 C9.64543353,23.9914984 9.23271676,23.8350691 8.91364162,23.5528162 L7.89398844,22.6482465 L6.52057803,22.6992561 C6.49976879,22.6992561 6.47895954,22.6992561 6.45815029,22.6992561 C5.8130289,22.6992561 5.22693642,22.3524251 4.92520231,21.7913199 L4.28358382,20.5976281 L4.23156069,20.5806249 L4.23156069,31.1124336 C4.23156069,31.7449522 4.91136416,32.1563953 5.48705202,31.8707418 L11.6188439,28.8510096 C11.8650867,28.7319872 12.152948,28.7319872 12.3991908,28.8510096 L18.520578,31.8741764 C19.0963006,32.159762 19.7760694,31.7483188 19.7760694,31.1158002 L19.7760694,20.5840935 L19.7240462,20.6010967 L19.0824277,21.7947205 C18.7840925,22.3524251 18.1944971,22.6992561 17.5494451,22.6992561 Z"></path>
                <path d="M23.8338382,12.0246546 C24.0107168,11.749203 24.0107168,11.3989373 23.8338382,11.120085 L23.1020116,9.97747078 C22.9806243,9.79043571 22.942474,9.56259299 22.9875607,9.34835282 L23.2788902,8.02890542 C23.3482543,7.70924548 23.2268671,7.37938363 22.9632486,7.17874601 L21.8776994,6.35239107 C21.7008208,6.21636557 21.5829017,6.01912859 21.5517225,5.79808714 L21.3609711,4.46163656 C21.3158497,4.13857598 21.0835145,3.86992561 20.7678728,3.76790648 L19.4603584,3.35302869 C19.2453642,3.28501594 19.0650173,3.13538789 18.9609711,2.94155154 L18.3193526,1.74792774 C18.1702197,1.46907545 17.8719538,1.29564293 17.5528439,1.29564293 C17.5424393,1.29564293 17.5320347,1.29564293 17.5216647,1.29564293 L16.1482197,1.3466525 C16.137815,1.3466525 16.1274104,1.3466525 16.1170405,1.3466525 C15.9020116,1.3466525 15.6939191,1.26843783 15.5343815,1.12561105 L14.5147283,0.221041445 C14.3517225,0.0782146652 14.1436301,-5.67981133e-14 13.9320694,-5.67981133e-14 C13.8210867,-5.67981133e-14 13.710104,0.0204038257 13.6060578,0.0646121148 L12.3332254,0.574707758 C12.2291792,0.615515409 12.1182312,0.639319872 12.0072486,0.639319872 C11.8962659,0.639319872 11.7852832,0.618916047 11.681237,0.574707758 L10.4084046,0.0646121148 C10.3008902,0.0238044633 10.1899075,-5.68434189e-14 10.0824277,-5.68434189e-14 C9.87083237,-5.68434189e-14 9.66273988,0.0748140276 9.49976879,0.221041445 L8.48011561,1.12561105 C8.32057803,1.26843783 8.11248555,1.3466525 7.89745665,1.3466525 C7.88705202,1.3466525 7.87661272,1.3466525 7.86624277,1.3466525 L6.49283237,1.29564293 C6.48242775,1.29564293 6.47198844,1.29564293 6.4616185,1.29564293 C6.14254335,1.29564293 5.84427746,1.46907545 5.69514451,1.74792774 L5.05352601,2.94155154 C4.94947977,3.13878852 4.76913295,3.28501594 4.55413873,3.35302869 L3.24662428,3.76790648 C2.93098266,3.86652497 2.6986474,4.13857598 2.65352601,4.46163656 L2.46277457,5.79808714 C2.43159538,6.01912859 2.31364162,6.21636557 2.13679769,6.35239107 L1.03737572,7.17874601 C0.773757225,7.37938363 0.652369942,7.70924548 0.721734104,8.02890542 L1.01306358,9.34835282 C1.0616185,9.56599362 1.02,9.79043571 0.898612717,9.97747078 L0.166786127,11.120085 C-0.0100924855,11.3955367 -0.0100924855,11.7458023 0.166786127,12.0246546 L0.898612717,13.1672689 C1.02,13.3543039 1.05815029,13.5821467 1.01306358,13.7963868 L0.721734104,15.1158682 C0.652369942,15.4354942 0.773757225,15.76539 1.03737572,15.9660276 L2.12292486,16.7923826 C2.29980347,16.9284081 2.41772254,17.1256111 2.44893642,17.3466525 L2.63968786,18.6831371 C2.68477457,19.0061977 2.91714451,19.274848 3.23275145,19.3768672 L4.22465896,19.6896918 L4.5437341,19.7917109 C4.75876301,19.8597237 4.93910983,20.0093518 5.04315607,20.2031881 L5.68477457,21.3968119 C5.83390751,21.6756982 6.13213873,21.8491307 6.45124855,21.8491307 C6.46165318,21.8491307 6.4720578,21.8491307 6.48246243,21.8491307 L7.85587283,21.7981211 C7.86627746,21.7981211 7.87668208,21.7981211 7.88708671,21.7981211 C8.10208092,21.7981211 8.31017341,21.8763698 8.46974566,22.0191626 L9.48936416,22.9237322 C9.65236994,23.066593 9.86046243,23.1447736 10.0720578,23.1447736 C10.1830058,23.1447736 10.2939884,23.1243698 10.3980347,23.0801615 L11.6708671,22.5700659 C11.7749133,22.5292922 11.885896,22.5055218 11.9968786,22.5055218 C12.1078266,22.5055218 12.2188092,22.5259256 12.3228555,22.5700659 L13.5956879,23.0801615 C13.7032023,23.1210032 13.814185,23.1447736 13.9216994,23.1447736 C14.1332601,23.1447736 14.3413526,23.0699936 14.5043584,22.9237322 L15.5239769,22.0191626 C15.6835491,21.8763698 15.8916416,21.7981211 16.1066705,21.7981211 C16.1170751,21.7981211 16.1274798,21.7981211 16.1378497,21.7981211 L17.5112948,21.8491307 C17.5216994,21.8491307 17.532104,21.8491307 17.542474,21.8491307 C17.8615491,21.8491307 18.159815,21.6756982 18.3089827,21.3968119 L18.9506012,20.2031881 C19.0546474,20.0059851 19.2349595,19.8597237 19.4499884,19.7917109 L19.7690636,19.6896918 L20.7609711,19.3768672 C21.0766127,19.2782487 21.3089827,19.0061977 21.3540694,18.6831371 L21.5448208,17.3466525 C21.576,17.1256111 21.6939538,16.9284081 21.8707977,16.7923826 L22.9563815,15.9660276 C23.2199653,15.76539 23.3413526,15.4354942 23.2719884,15.1158682 L22.980659,13.7963868 C22.9321387,13.57878 22.9737572,13.3543039 23.0951445,13.1672689 L23.8338382,12.0246546 Z M20.3899075,15.0478215 C20.2129942,15.4524633 20.0118728,15.8435367 19.7794682,16.2176408 C19.4049017,16.8195197 18.9575029,17.3806249 18.4407399,17.8839532 C17.6048671,18.7035069 16.6303353,19.3462274 15.5482543,19.7950776 C14.4245896,20.2609989 13.2314913,20.4956089 12.0037457,20.4956089 C10.7760347,20.4956089 9.58293642,20.2610329 8.45927168,19.7950776 C7.37368786,19.3462274 6.4025896,18.7034729 5.56678613,17.8839532 C5.0500578,17.3772582 4.60262428,16.8195197 4.2280578,16.2176408 C3.99568786,15.8435707 3.7910289,15.455898 3.6176185,15.0478215 C3.14250867,13.9460149 2.90316763,12.7761615 2.90316763,11.5723698 C2.90316763,10.3685441 3.14247399,9.19872476 3.6176185,8.09691817 C4.07542197,7.0325186 4.73094798,6.08034006 5.56675145,5.2607864 C6.40255491,4.44123273 7.37715607,3.79851222 8.45923699,3.34962806 C9.58290173,2.8837407 10.776,2.64909671 12.003711,2.64909671 C13.2314566,2.64909671 14.4245549,2.8837407 15.5482197,3.34962806 C16.6337688,3.79851222 17.6048671,4.44123273 18.4407052,5.2607864 C19.2765434,6.08034006 19.9320347,7.03591923 20.3898382,8.09691817 C20.864948,9.19872476 21.104289,10.3685441 21.104289,11.5723698 C21.1043584,12.7761955 20.8650173,13.9460149 20.3899075,15.0478215 Z"></path>
                <path d="M12.0003121,3.66588735 C7.54713295,3.66588735 3.93672832,7.20595112 3.93672832,11.5723698 C3.93672832,12.2967056 4.03730636,13.0006376 4.2245896,13.6671626 C5.16100578,17.0167906 8.28932948,19.4788863 12.0003121,19.4788863 C15.7112948,19.4788863 18.8396185,17.0168247 19.7760347,13.6671626 C19.9632832,13.0006376 20.063896,12.2967056 20.063896,11.5723698 C20.063896,7.20595112 16.4534913,3.66588735 12.0003121,3.66588735 Z M15.5899075,15.2348565 C15.7459769,15.9523911 14.9656301,16.5134623 14.3136069,16.1496281 L12.0003121,14.864187 L9.68354913,16.1496281 C9.03499422,16.5100956 8.25117919,15.9489904 8.40724855,15.2348565 L8.96216185,12.6707758 L7.15175723,11.0690755 L6.95060116,10.8888417 C6.39915607,10.3991498 6.69048555,9.50138151 7.42571098,9.41296493 L10.0615491,9.09670563 L11.2095607,6.68565356 C11.5216994,6.03273114 12.4685202,6.03273114 12.780659,6.68565356 L13.9286358,9.09670563 L16.564474,9.41296493 C17.303237,9.50138151 17.5910983,10.3991498 17.0396185,10.8888417 L16.8384624,11.0690755 L15.0280578,12.6707758 L15.5899075,15.2348565 Z"></path>
            </g>
        </g>
    </g>
</svg>