<?xml version="1.0" encoding="UTF-8"?>
<svg width="22px" height="28px" viewBox="0 0 22 28" version="1.1" xmlns="http://www.w3.org/2000/svg" xmlns:xlink="http://www.w3.org/1999/xlink">
    <!-- Generator: sketchtool 49.3 (51167) - http://www.bohemiancoding.com/sketch -->
    <title>39752136-8701-4DF5-8594-EDA3F1E365D3</title>
    <desc>Created with sketchtool.</desc>
    <defs></defs>
    <g id="UI" stroke="none" stroke-width="1" fill="none" fill-rule="evenodd" opacity="0.81102808">
        <g id="gallery-copy" transform="translate(-1156.000000, -739.000000)">
            <g id="Group-21">
                <g id="ic_delete_forever_24px" transform="translate(1149.000000, 735.000000)">
                    <polygon id="Shape" points="0 0 36 0 36 36 0 36"></polygon>
                    <path d="M9,28.5 C9,30.15 10.35,31.5 12,31.5 L24,31.5 C25.65,31.5 27,30.15 27,28.5 L27,10.5 L9,10.5 L9,28.5 Z M12.69,17.82 L14.805,15.705 L18,18.885 L21.18,15.705 L23.295,17.82 L20.115,21 L23.295,24.18 L21.18,26.295 L18,23.115 L14.82,26.295 L12.705,24.18 L15.885,21 L12.69,17.82 Z M23.25,6 L21.75,4.5 L14.25,4.5 L12.75,6 L7.5,6 L7.5,9 L28.5,9 L28.5,6 L23.25,6 Z" id="Shape" fill="#FFFFFF" fill-rule="nonzero"></path>
                </g>
            </g>
        </g>
    </g>
</svg>