<?xml version="1.0" encoding="UTF-8"?>
<svg width="20px" height="20px" viewBox="0 0 20 20" version="1.1" xmlns="http://www.w3.org/2000/svg" xmlns:xlink="http://www.w3.org/1999/xlink">
    <!-- Generator: Sketch 49.3 (51167) - http://www.bohemiancoding.com/sketch -->
    <title>google-icon</title>
    <desc>Created with Sketch.</desc>
    <defs></defs>
    <g id="UI" stroke="none" stroke-width="1" fill="none" fill-rule="evenodd">
        <g id="0.2_Registration" transform="translate(-598.000000, -421.000000)" fill-rule="nonzero">
            <g id="Group-16" transform="translate(0.000000, -6.000000)">
                <g id="Google" transform="translate(502.000000, 411.000000)">
                    <g id="Group-10" transform="translate(96.000000, 16.000000)">
                        <g id="Group-14">
                            <g id="google-icon">
                                <path d="M19.5326718,9.99488982 C19.5326718,9.19096068 19.4661832,8.60430362 19.3222901,7.99592683 L9.96564885,7.99592683 L9.96564885,11.6244678 L15.4577863,11.6244678 C15.3470992,12.5262106 14.7491603,13.8842172 13.4203817,14.7967449 L13.4017557,14.9182256 L16.3601527,17.1668155 L16.5651145,17.1868875 C18.4474809,15.4812156 19.5326718,12.9716146 19.5326718,9.99488982" id="Shape" fill="#4285F4"></path>
                                <path d="M9.96564885,19.5552355 C12.6563359,19.5552355 14.9151908,18.6860723 16.5651145,17.1868875 L13.4203817,14.7967449 C12.578855,15.3725421 11.4493893,15.7745067 9.96564885,15.7745067 C7.33030534,15.7745067 5.09358779,14.0689097 4.29625954,11.7114216 L4.17938931,11.721158 L1.10320611,14.0569264 L1.0629771,14.1666484 C2.70175573,17.3606453 6.06793893,19.5552355 9.96564885,19.5552355" id="Shape" fill="#34A853"></path>
                                <path d="M4.29625954,11.7114216 C4.08587786,11.1030448 3.96412214,10.4511537 3.96412214,9.77761774 C3.96412214,9.10400691 4.08587786,8.4521907 4.28519084,7.84381391 L4.27961832,7.71424456 L1.1648855,5.34095348 L1.0629771,5.38851217 C0.387557252,6.71393922 0,8.20233905 0,9.77761774 C0,11.3528964 0.387557252,12.8412214 1.0629771,14.1666484 L4.29625954,11.7114216" id="Shape" fill="#FBBC05"></path>
                                <path d="M9.96564885,3.7806539 C11.8369466,3.7806539 13.0992366,4.57372317 13.8190076,5.23647415 L16.6315267,2.54218061 C14.9041985,0.966901916 12.6563359,0 9.96564885,0 C6.06793893,0 2.70175573,2.19451534 1.0629771,5.38851217 L4.28519084,7.84381391 C5.09358779,5.4863258 7.33030534,3.7806539 9.96564885,3.7806539" id="Shape" fill="#EB4335"></path>
                            </g>
                        </g>
                    </g>
                </g>
            </g>
        </g>
    </g>
</svg>