<?xml version="1.0" encoding="UTF-8"?>
<svg width="495px" height="389px" viewBox="0 0 495 389" version="1.1" xmlns="http://www.w3.org/2000/svg" xmlns:xlink="http://www.w3.org/1999/xlink">
    <!-- Generator: Sketch 49.3 (51167) - http://www.bohemiancoding.com/sketch -->
    <title>LOGO white</title>
    <desc>Created with Sketch.</desc>
    <defs></defs>
    <g id="Landing-page" stroke="none" stroke-width="1" fill="none" fill-rule="evenodd">
        <g id="LOGO-white" fill="#FFFFFF" fill-rule="nonzero">
            <g id="XMLID_152_-Copy">
                <g id="XMLID_56_">
                    <path d="M177.8,31 C157.4,10.7 131,0.5 104.3,0.5 C77.6,0.5 51.1,10.7 30.8,31 C26,35.7 22,40.9 18.1,46.1 C32.6,25.1 56.8,11.3 84.4,11.3 C128.7,11.3 164.7,47.2 164.7,91.5 C164.7,105.7 161.1,119.1 154.5,130.6 C152.9,133.5 151.1,136.5 149.1,139.2 C145,144.6 140.5,149.4 135.3,153.7 L104.5,184.4 L25.2,272 L83.5,272 L178,177.9 C218.3,137.4 218.3,71.6 177.8,31 Z" id="XMLID_37_"></path>
                    <path d="M164.7,91.5 C164.7,47.2 128.7,11.3 84.4,11.3 C56.8,11.3 32.6,25.1 18.1,46.1 C17.9,46.3 17.6,46.8 17.4,47 C16.7,47.9 16.3,48.8 15.6,49.7 C-9.3,90 -4.3,143.1 30.5,177.9 L247,389 L247,325.5 L64,144.4 C41.8,122.3 41.8,86.3 64,64.2 C74.6,53.6 88.9,47.7 104,47.7 C119.1,47.7 133.4,53.6 144,64.2 C161.9,82.1 166.3,109.2 155.2,130.4 C162.1,119.1 164.7,105.8 164.7,91.5 Z" id="XMLID_34_"></path>
                </g>
            </g>
            <path d="M317.2,31 C337.6,10.7 364,0.5 390.7,0.5 C417.4,0.5 443.9,10.7 464.2,31 C469,35.7 473,40.9 476.9,46.1 C462.4,25.1 438.2,11.3 410.6,11.3 C366.3,11.3 330.3,47.2 330.3,91.5 C330.3,105.7 333.9,119.1 340.5,130.6 C342.1,133.5 343.9,136.5 345.9,139.2 C350,144.6 354.5,149.4 359.7,153.7 L390.5,184.4 L475.2,272 L415.8,272 L317,177.9 C276.7,137.4 276.7,71.6 317.2,31 Z" id="XMLID_1_"></path>
            <path d="M330.3,91.5 C330.3,47.2 366.3,11.3 410.6,11.3 C438.2,11.3 462.4,25.1 476.9,46.1 C477.1,46.3 477.4,46.8 477.6,47 C478.3,47.9 478.7,48.8 479.4,49.7 C504.3,89.9 499.3,143 464.5,177.8 L247,389 L246.1,326.4 L431,144.4 C453.2,122.3 453.2,86.3 431,64.2 C420.4,53.6 406.1,47.7 391,47.7 C375.8,47.7 361.6,53.6 351,64.2 C333.1,82.1 328.7,109.2 339.8,130.4 C332.9,119.1 330.3,105.8 330.3,91.5 Z" id="XMLID_2_"></path>
        </g>
    </g>
</svg>