<?xml version="1.0" encoding="UTF-8"?>
<svg width="20px" height="16px" viewBox="0 0 20 16" version="1.1" xmlns="http://www.w3.org/2000/svg" xmlns:xlink="http://www.w3.org/1999/xlink">
    <!-- Generator: Sketch 49.3 (51167) - http://www.bohemiancoding.com/sketch -->
    <title>ic_mail_outline_24px@2x</title>
    <desc>Created with Sketch.</desc>
    <defs></defs>
    <g id="UI" stroke="none" stroke-width="1" fill="none" fill-rule="evenodd">
        <g id="0.2_Registration" transform="translate(-621.000000, -506.000000)" fill="#FFFFFF" fill-rule="nonzero">
            <g id="Group-16" transform="translate(0.000000, -6.000000)">
                <g id="Email" transform="translate(501.000000, 493.000000)">
                    <g id="Group-7" transform="translate(120.000000, 17.000000)">
                        <g id="Group-9">
                            <g id="Group-11">
                                <g id="Group-15">
                                    <g id="ic_mail_outline_24px" transform="translate(0.000000, 2.000000)">
                                        <path d="M18,0 L2,0 C0.9,0 0.01,0.9 0.01,2 L0,14 C0,15.1 0.9,16 2,16 L18,16 C19.1,16 20,15.1 20,14 L20,2 C20,0.9 19.1,0 18,0 Z M18,14 L2,14 L2,4 L10,9 L18,4 L18,14 Z M10,7 L2,2 L18,2 L10,7 Z" id="Shape"></path>
                                    </g>
                                </g>
                            </g>
                        </g>
                    </g>
                </g>
            </g>
        </g>
    </g>
</svg>